<svg xmlns="http://www.w3.org/2000/svg" width="24.703" height="10.022" viewBox="0 0 24.703 10.022">
  <g id="Betrachten_Logo" data-name="Betrachten Logo" transform="translate(-2.25 -11.813)">
    <path id="Pfad" d="M15.75,15.79a1.727,1.727,0,0,1,3.454,0" transform="translate(-2.876 -0.261)" fill="none" stroke="#707070" stroke-linecap="round" stroke-linejoin="round" stroke-width="2.25"/>
    <path id="Pfad-2" data-name="Pfad" d="M31.5,14.063h.864" transform="translate(-6.536 -0.261)" fill="none" stroke="#707070" stroke-linecap="round" stroke-linejoin="round" stroke-width="2.25"/>
    <path id="Pfad-3" data-name="Pfad" d="M4.239,14.063H3.375" transform="translate(0 -0.261)" fill="none" stroke="#707070" stroke-linecap="round" stroke-linejoin="round" stroke-width="2.25"/>
    <path id="Pfad-4" data-name="Pfad" d="M4.5,13.8c0,5.181.864,6.909,4.318,6.909s4.318-1.727,4.318-6.909c0,0-.864-.864-4.318-.864S4.5,13.8,4.5,13.8Z" transform="translate(-0.261)" fill="none" stroke="#707070" stroke-linecap="round" stroke-linejoin="round" stroke-width="2.25"/>
    <path id="Pfad-5" data-name="Pfad" d="M28.886,13.8c0,5.181-.864,6.909-4.318,6.909S20.25,18.983,20.25,13.8c0,0,.864-.864,4.318-.864S28.886,13.8,28.886,13.8Z" transform="translate(-3.922)" fill="none" stroke="#707070" stroke-linecap="round" stroke-linejoin="round" stroke-width="2.25"/>
  </g>
</svg>
