<svg xmlns="http://www.w3.org/2000/svg" width="25.323" height="25.323" viewBox="0 0 25.323 25.323">
  <path id="Dienstplan_Logo" data-name="Dienstplan Logo" d="M6.331.791a.791.791,0,1,0-1.583,0v.791H3.165A3.165,3.165,0,0,0,0,4.748V6.331H25.323V4.748a3.165,3.165,0,0,0-3.165-3.165H20.575V.791a.791.791,0,1,0-1.583,0v.791H6.331ZM0,7.914H25.323V22.158a3.165,3.165,0,0,1-3.165,3.165H3.165A3.165,3.165,0,0,1,0,22.158ZM14.776,20.242a2.516,2.516,0,0,1-2.7-2.227h1.081a1.569,1.569,0,0,0,1.664,1.3c1.336,0,2.059-1.342,2.065-3.425h-.043a2.206,2.206,0,0,1-2.189,1.251,2.624,2.624,0,0,1-2.653-2.8,2.782,2.782,0,0,1,2.844-2.863c1.855,0,3.091,1.161,3.091,4.223,0,2.857-1.174,4.544-3.165,4.544Zm.1-4.026a1.855,1.855,0,0,0,1.874-1.868A1.763,1.763,0,0,0,14.919,12.4a1.79,1.79,0,0,0-1.849,1.915,1.742,1.742,0,0,0,1.811,1.9ZM10.2,11.642v8.439H9.132v-7.3H9.113c-.459.247-1.4.823-1.991,1.23v-1.1A19.942,19.942,0,0,1,9.2,11.641h1Z" fill="#707070" fill-rule="evenodd"/>
</svg>
