<svg xmlns="http://www.w3.org/2000/svg" width="25.328" height="25.328" viewBox="0 0 25.328 25.328">
  <path id="Downloads_Logo" data-name="Downloads Logo" d="M12.664,25.328A12.625,12.625,0,0,1,1.694,19.02,12.433,12.433,0,0,1,0,12.664,12.625,12.625,0,0,1,6.307,1.694,12.445,12.445,0,0,1,12.664,0a12.625,12.625,0,0,1,10.97,6.307,12.451,12.451,0,0,1,1.694,6.357,12.625,12.625,0,0,1-6.307,10.97A12.44,12.44,0,0,1,12.664,25.328Zm9-12.664H15.854V4.749a1.51,1.51,0,0,0-.47-1.126,1.538,1.538,0,0,0-1.113-.457H11.081a1.542,1.542,0,0,0-1.113.457A1.509,1.509,0,0,0,9.5,4.749v7.915H3.661q-.371,0-.457.148t.21.47l8.459,8.533a1.107,1.107,0,0,0,1.608,0l8.459-8.533q.3-.322.2-.47T21.667,12.664Z" fill="#FFFFFF"/>
</svg>
