<svg xmlns="http://www.w3.org/2000/svg" width="25.104" height="14.644" viewBox="0 0 25.104 14.644">
  <path id="Filter_Logo" data-name="Filter Logo" d="M12.868,22.6a1.046,1.046,0,0,1,1.046-1.046H20.19a1.046,1.046,0,0,1,0,2.092H13.914A1.046,1.046,0,0,1,12.868,22.6ZM8.684,16.322A1.046,1.046,0,0,1,9.73,15.276H24.374a1.046,1.046,0,0,1,0,2.092H9.73A1.046,1.046,0,0,1,8.684,16.322ZM4.5,10.046A1.046,1.046,0,0,1,5.546,9H28.558a1.046,1.046,0,0,1,0,2.092H5.546A1.046,1.046,0,0,1,4.5,10.046Z" transform="translate(-4.5 -9)" fill="#707070" fill-rule="evenodd"/>
</svg>
