<svg xmlns="http://www.w3.org/2000/svg" width="23.365" height="25.162" viewBox="0 0 23.365 25.162">
  <path id="Benachrichtigung_Logo" data-name="Benachrichtigung Logo" d="M11.907,23.814a.2.2,0,0,0-.224-.224A2.039,2.039,0,0,1,9.66,21.568a.224.224,0,0,0-.449,0,2.47,2.47,0,0,0,2.471,2.471.2.2,0,0,0,.224-.224ZM23.365,19.77a1.821,1.821,0,0,1-1.8,1.8H15.278a3.6,3.6,0,0,1-3.595,3.595,3.6,3.6,0,0,1-3.595-3.595H1.8a1.727,1.727,0,0,1-1.264-.533A1.727,1.727,0,0,1,0,19.77a12.388,12.388,0,0,0,1.278-1.236,11.117,11.117,0,0,0,1.194-1.678A12.636,12.636,0,0,0,3.518,14.63a16.335,16.335,0,0,0,.7-2.892,23.064,23.064,0,0,0,.274-3.651A5.838,5.838,0,0,1,6.136,4.121,6.944,6.944,0,0,1,10.447,1.9a1.4,1.4,0,0,1-.113-.547,1.3,1.3,0,0,1,.394-.955,1.355,1.355,0,0,1,1.91,0,1.3,1.3,0,0,1,.394.955,1.393,1.393,0,0,1-.113.547,6.944,6.944,0,0,1,4.31,2.225,5.841,5.841,0,0,1,1.643,3.967,22.954,22.954,0,0,0,.274,3.651,16.417,16.417,0,0,0,.7,2.892,12.57,12.57,0,0,0,1.046,2.225,11.184,11.184,0,0,0,1.194,1.678,12.3,12.3,0,0,0,1.278,1.236Z" fill="#707070"/>
</svg>
