<svg xmlns="http://www.w3.org/2000/svg" width="19.167" height="19.167" viewBox="0 0 19.167 19.167">
  <path id="Kalender" d="M4.792.6a.6.6,0,1,0-1.2,0v.6H2.4A2.4,2.4,0,0,0,0,3.594v1.2H19.167v-1.2a2.4,2.4,0,0,0-2.4-2.4h-1.2V.6a.6.6,0,1,0-1.2,0v.6H4.792ZM0,5.99H19.167V16.771a2.4,2.4,0,0,1-2.4,2.4H2.4a2.4,2.4,0,0,1-2.4-2.4Zm11.184,9.332a1.9,1.9,0,0,1-2.04-1.686h.818a1.188,1.188,0,0,0,1.259.982c1.011,0,1.558-1.016,1.563-2.592h-.032a1.67,1.67,0,0,1-1.657.947,1.986,1.986,0,0,1-2.008-2.12A2.105,2.105,0,0,1,11.24,8.685c1.4,0,2.339.879,2.339,3.2,0,2.162-.889,3.439-2.4,3.439Zm.079-3.048a1.4,1.4,0,0,0,1.418-1.414,1.335,1.335,0,0,0-1.39-1.474,1.355,1.355,0,0,0-1.4,1.45,1.319,1.319,0,0,0,1.37,1.438ZM7.721,8.811V15.2H6.912V9.676H6.9c-.347.187-1.058.623-1.507.931V9.775a15.094,15.094,0,0,1,1.573-.964h.757Z" fill="#707070" fill-rule="evenodd"/>
</svg>
