<svg xmlns="http://www.w3.org/2000/svg" width="24.829" height="24.828" viewBox="0 0 24.829 24.828">
  <path id="Kontaktformular_Logo" data-name="Kontaktformular Logo" d="M24.44.152a.865.865,0,0,1,.374.887L21.266,22.32a.871.871,0,0,1-.443.623.849.849,0,0,1-.43.111.935.935,0,0,1-.332-.069l-6.276-2.563-3.353,4.087a.816.816,0,0,1-.679.319.753.753,0,0,1-.3-.055.886.886,0,0,1-.582-.832V19.106L20.837,4.433,6.026,17.249.554,15.005a.877.877,0,0,1-.111-1.579L23.5.125A.846.846,0,0,1,23.94,0a.859.859,0,0,1,.5.152Z" transform="translate(0.002)" fill="#707070"/>
</svg>
