<svg xmlns="http://www.w3.org/2000/svg" width="22.453" height="9.623" viewBox="0 0 22.453 9.623">
  <g id="Link_Logo" data-name="Link Logo" transform="translate(-2.25 -12.375)">
    <path id="Pfad" d="M10.836,12.375H7.061a4.811,4.811,0,0,0,0,9.623h4.811a4.811,4.811,0,0,0,4.538-6.415H15.08a1.56,1.56,0,0,0-.4.05,3.208,3.208,0,0,1-2.806,4.761H7.061a3.208,3.208,0,0,1,0-6.415H9.523a6.427,6.427,0,0,1,1.315-1.6Z" transform="translate(0 0)" fill="#707070"/>
    <path id="Pfad-2" data-name="Pfad" d="M18.31,12.375a4.811,4.811,0,0,0-4.538,6.415h1.761a3.208,3.208,0,0,1,2.777-4.811h4.811a3.208,3.208,0,0,1,0,6.415H20.66A6.447,6.447,0,0,1,19.345,22h3.777a4.811,4.811,0,0,0,0-9.623Z" transform="translate(-3.23)" fill="#707070"/>
  </g>
</svg>
