<svg xmlns="http://www.w3.org/2000/svg" width="20.036" height="25.5" viewBox="0 0 20.036 25.5">
  <g id="Lohnabrechnung_Logo" data-name="Lohnabrechnung Logo" transform="translate(-5.625 -2.25)">
    <path id="Pfad" d="M25.433,13.179H17.464a2.732,2.732,0,0,1-2.732-2.732V2.477A.227.227,0,0,0,14.5,2.25H9.268A3.643,3.643,0,0,0,5.625,5.893V24.107A3.643,3.643,0,0,0,9.268,27.75h12.75a3.643,3.643,0,0,0,3.643-3.643v-10.7a.227.227,0,0,0-.227-.227Z" transform="translate(0)" fill="#707070"/>
    <path id="Pfad-2" data-name="Pfad" d="M27.5,11.326,19.319,3.141a.114.114,0,0,0-.194.08V10.61a.911.911,0,0,0,.911.911h7.389a.114.114,0,0,0,.08-.194Z" transform="translate(-2.571 -0.164)" fill="#707070"/>
  </g>
</svg>
