<svg xmlns="http://www.w3.org/2000/svg" width="28.137" height="25.323" viewBox="0 0 28.137 25.323">
  <g id="Neuigkeiten_Logo" data-name="Neuigkeiten Logo" transform="translate(-3 -4.5)">
    <path id="Pfad" d="M28.148,4.5H5.99A2.908,2.908,0,0,0,3,7.314v19.7a2.908,2.908,0,0,0,2.99,2.814H28.148a2.908,2.908,0,0,0,2.989-2.814V7.314A2.908,2.908,0,0,0,28.147,4.5Zm0,22.51H5.99a1.026,1.026,0,0,1-.159-.023c-.01,0-.016,0-.017.011L5.8,7.378a.26.26,0,0,1,.193-.065H28.148c.111,0,.172.039.176.011l.017,19.62A.26.26,0,0,1,28.148,27.01Z" fill="#707070"/>
    <path id="Pfad-2" data-name="Pfad" d="M9,10.5h8.441v8.441H9Zm9.848,11.255H9v2.814H25.882V21.755H18.848Zm1.407-5.627h5.627v2.814H20.255Zm0-5.627h5.627v2.814H20.255Z" transform="translate(-0.373 -0.373)" fill="#707070"/>
  </g>
</svg>
