<svg xmlns="http://www.w3.org/2000/svg" width="48.8" height="61" viewBox="0 0 48.8 61">
  <g id="PDF_Logo" data-name="PDF Logo" transform="translate(-6 -3)">
    <path id="Pfad" d="M12.977,22.02a4.568,4.568,0,0,0-1.135.11v3.593a4.15,4.15,0,0,0,.921.071c1.46,0,2.361-.738,2.361-1.987,0-1.116-.775-1.787-2.147-1.787Zm10.636.037a5.609,5.609,0,0,0-1.24.11v7.96a4.975,4.975,0,0,0,.956.055c2.491.018,4.113-1.354,4.113-4.258a3.49,3.49,0,0,0-3.827-3.867Z" transform="translate(6.037 19.654)" fill="#707070"/>
    <path id="Pfad-2" data-name="Pfad" d="M36.5,3H12.1A6.1,6.1,0,0,0,6,9.1V57.9A6.1,6.1,0,0,0,12.1,64H48.7a6.1,6.1,0,0,0,6.1-6.1V21.3ZM22.769,46.279a5.654,5.654,0,0,1-3.953,1.281,6.8,6.8,0,0,1-.939-.055v4.349H15.15v-12a23.052,23.052,0,0,1,3.717-.25,5.839,5.839,0,0,1,3.721.974,3.568,3.568,0,0,1,1.3,2.816,3.92,3.92,0,0,1-1.118,2.891Zm11.61,4.132a8.736,8.736,0,0,1-5.612,1.57,23.486,23.486,0,0,1-3.123-.183V39.852a24.238,24.238,0,0,1,3.719-.252,7.827,7.827,0,0,1,4.982,1.3,5.385,5.385,0,0,1,2.06,4.587,6.168,6.168,0,0,1-2.023,4.925ZM45.65,41.949H40.977v2.78h4.368v2.239H40.977v4.892H38.214V39.692H45.65ZM36.5,24.35H33.45V9.1L48.7,24.35Z" fill="#707070"/>
  </g>
</svg>
