<svg id="Pfeil_nach_rechts" data-name="Pfeil nach rechts" xmlns="http://www.w3.org/2000/svg" width="18.002" height="15.753" viewBox="0 0 18.002 15.753">
  <path id="Pfad" d="M9.329,10.454a1.125,1.125,0,0,0,0,1.593L15.285,18,9.329,23.954a1.126,1.126,0,0,0,1.593,1.593l6.75-6.75a1.125,1.125,0,0,0,0-1.593l-6.75-6.75a1.125,1.125,0,0,0-1.593,0Z" transform="translate(-0.001 -10.123)" fill="#707070" fill-rule="evenodd"/>
  <path id="Pfad-2" data-name="Pfad" d="M27,18a1.125,1.125,0,0,0-1.125-1.125H11.25a1.125,1.125,0,1,0,0,2.25H25.875A1.125,1.125,0,0,0,27,18Z" transform="translate(-10.125 -10.124)" fill="#707070" fill-rule="evenodd"/>
</svg>
