<svg xmlns="http://www.w3.org/2000/svg" width="25.104" height="25.104" viewBox="0 0 25.104 25.104">
  <g id="Profil_Logo" data-name="Profil Logo" transform="translate(-1.5 -1.5)">
    <path id="Pfad" d="M21.129,12.064A4.564,4.564,0,1,1,16.564,7.5a4.564,4.564,0,0,1,4.564,4.564Zm-2.282,0a2.282,2.282,0,1,1-2.282-2.282,2.282,2.282,0,0,1,2.282,2.282Z" transform="translate(-2.512 -1.436)" fill="#707070" fill-rule="evenodd"/>
    <path id="Pfad-2" data-name="Pfad" d="M14.052,1.5A12.552,12.552,0,1,0,26.6,14.052,12.552,12.552,0,0,0,14.052,1.5ZM3.782,14.052a10.229,10.229,0,0,0,2.177,6.324,10.272,10.272,0,0,1,16.26-.1A10.27,10.27,0,1,0,3.782,14.052Zm10.27,10.27a10.227,10.227,0,0,1-6.472-2.3,7.99,7.99,0,0,1,13.039-.078A10.229,10.229,0,0,1,14.052,24.322Z" fill="#707070" fill-rule="evenodd"/>
  </g>
</svg>
