<svg xmlns="http://www.w3.org/2000/svg" width="20.1" height="20.072" viewBox="0 0 20.1 20.072">
  <g id="Passwort_Logo" data-name="Passwort Logo" transform="translate(-2.25 -2.25)">
    <path id="Pfad" d="M15.87,2.25A6.452,6.452,0,0,0,9.419,8.7a6.359,6.359,0,0,0,.28,1.871L2.25,18.021v4.3h4.3L14,14.874a6.452,6.452,0,0,0,8.323-5.642,6.287,6.287,0,0,0-1.183-4.3A6.452,6.452,0,0,0,15.87,2.25Zm0,11.47a5.018,5.018,0,0,1-1.434-.215l-.825-.251L13,13.863l-2.28,2.28-1.011-.99L8.7,16.164l.989.989-1.14,1.14L7.562,17.3,6.551,18.315l.989.989L5.956,20.888H3.684V18.616l7.025-7.047.609-.609-.208-.681a5.118,5.118,0,0,1,2.437-6.05,5.018,5.018,0,0,1,7.341,4.3,4.8,4.8,0,0,1-.781,2.867A5.018,5.018,0,0,1,15.87,13.72Z" transform="translate(0 0)" fill="#707070"/>
    <path id="Pfad-2" data-name="Pfad" d="M25.367,10.434A1.434,1.434,0,1,1,23.934,9,1.434,1.434,0,0,1,25.367,10.434Z" transform="translate(-7.347 -2.449)" fill="#707070"/>
  </g>
</svg>
