<svg xmlns="http://www.w3.org/2000/svg" width="24.23" height="25.105" viewBox="0 0 24.23 25.105">
  <g id="Sortieren_Logo" data-name="Sortieren Logo" transform="translate(-3.373 -3.753)">
    <path id="Pfad" d="M8.893,28.929a1.018,1.018,0,0,0,1.018-1.018V5.518a1.018,1.018,0,1,0-2.036,0V27.911A1.018,1.018,0,0,0,8.893,28.929Z" transform="translate(-0.429 -0.071)" fill="#707070" fill-rule="evenodd"/>
    <path id="Pfad-2" data-name="Pfad" d="M13.256,10.309a1.018,1.018,0,0,0,0-1.441L9.184,4.8a1.018,1.018,0,0,0-1.441,0L3.672,8.868a1.019,1.019,0,1,0,1.441,1.441L8.464,6.957l3.351,3.353a1.018,1.018,0,0,0,1.441,0Z" transform="translate(0 -0.071)" fill="#707070" fill-rule="evenodd"/>
    <path id="Pfad-3" data-name="Pfad" d="M21.515,14.607l.851-2.791h3.625l.85,2.791h2.282L25.5,3.753H22.986L19.343,14.607Zm2.72-8.78,1.327,4.391h-2.75l1.327-4.391Zm-4.016,23.03h8.008V27.092H22.843V26.98l5.226-7.571V18h-7.7v1.765h5.1v.112L20.22,27.451v1.407Z" transform="translate(-1.521)" fill="#707070"/>
  </g>
</svg>
