<svg xmlns="http://www.w3.org/2000/svg" width="19.679" height="14.759" viewBox="0 0 19.679 14.759">
  <path id="Umbenennen_Logo" data-name="Umbenennen Logo" d="M19.679,10.483v2.108a.357.357,0,0,1-.351.351H4.217v2.108a.357.357,0,0,1-.351.351.412.412,0,0,1-.263-.11L.1,11.778a.329.329,0,0,1-.1-.242.342.342,0,0,1,.1-.253L3.613,7.77a.342.342,0,0,1,.253-.1.356.356,0,0,1,.351.352v2.108H19.328a.357.357,0,0,1,.351.351Zm0-5.974a.342.342,0,0,1-.1.253L16.066,8.275a.342.342,0,0,1-.253.1.356.356,0,0,1-.351-.351V5.914H.351A.338.338,0,0,1,.1,5.81.338.338,0,0,1,0,5.563V3.454a.338.338,0,0,1,.1-.247.338.338,0,0,1,.247-.1H15.462V.994a.339.339,0,0,1,.351-.351.412.412,0,0,1,.263.11l3.5,3.5A.342.342,0,0,1,19.679,4.508Z" transform="translate(0 -0.643)" fill="#707070"/>
</svg>
