<svg xmlns="http://www.w3.org/2000/svg" width="24.828" height="24.826" viewBox="0 0 24.828 24.826">
  <path id="Urlaubsantrag_Logo" data-name="Urlaubsantrag Logo" d="M24.374.618a2.6,2.6,0,0,1,.213,2.622,7.736,7.736,0,0,1-1.913,3.047L19.822,9.138l2.834,12.329a.537.537,0,0,1-.213.585l-2.268,1.7a.5.5,0,0,1-.337.106.388.388,0,0,1-.124-.018.49.49,0,0,1-.372-.283l-4.943-9L9.813,19.147l.939,3.436a.539.539,0,0,1-.142.549l-1.7,1.7a.552.552,0,0,1-.407.159H8.466a.636.636,0,0,1-.425-.23L4.693,20.3.229,16.95A.529.529,0,0,1,0,16.543.606.606,0,0,1,.159,16.1l1.7-1.718a.552.552,0,0,1,.407-.159.367.367,0,0,1,.142.018l3.436.939,4.588-4.588-9-4.943a.6.6,0,0,1-.3-.425.546.546,0,0,1,.159-.478L3.56,2.478a.517.517,0,0,1,.531-.142l11.78,2.816,2.834-2.834A7.729,7.729,0,0,1,21.752.405a2.6,2.6,0,0,1,2.622.213Z" transform="translate(0.002 -0.167)" fill="#FFFFFF"/>
</svg>
