<svg xmlns="http://www.w3.org/2000/svg" width="25.298" height="25.323" viewBox="0 0 25.298 25.323">
  <path id="Einstellungen_Logo" data-name="Einstellungen Logo" d="M27.955,13.737l-2.828-.844a9.834,9.834,0,0,0-.8-1.967L25.71,8.335a.515.515,0,0,0-.093-.608L23.6,5.7a.515.515,0,0,0-.608-.093L20.418,6.984a9.808,9.808,0,0,0-1.992-.844l-.844-2.794a.515.515,0,0,0-.5-.346H14.23a.515.515,0,0,0-.49.363L12.9,6.148a9.817,9.817,0,0,0-2.009.844L8.355,5.625a.515.515,0,0,0-.608.093l-2.051,2a.515.515,0,0,0-.093.608l1.367,2.532a9.817,9.817,0,0,0-.844,2L3.333,13.7a.515.515,0,0,0-.363.49v2.853a.515.515,0,0,0,.363.49l2.811.844a9.808,9.808,0,0,0,.844,1.967L5.6,23A.515.515,0,0,0,5.7,23.6l2.017,2.017a.515.515,0,0,0,.608.093l2.608-1.393a9.834,9.834,0,0,0,1.941.793l.844,2.845a.515.515,0,0,0,.49.363h2.853a.515.515,0,0,0,.49-.363l.844-2.853a9.817,9.817,0,0,0,1.925-.793l2.625,1.4a.515.515,0,0,0,.608-.093L25.567,23.6A.515.515,0,0,0,25.659,23l-1.4-2.617a9.817,9.817,0,0,0,.8-1.933L27.9,17.6a.515.515,0,0,0,.363-.49V14.235a.515.515,0,0,0-.312-.5ZM15.657,20.3A4.643,4.643,0,1,1,20.3,15.662,4.643,4.643,0,0,1,15.657,20.3Z" transform="translate(-2.97 -3)" fill="#FFFFFF"/>
</svg>
