<svg id="Illustration" xmlns="http://www.w3.org/2000/svg" width="1067" height="820.222" viewBox="0 0 1067 820.222">
  <path id="Pfad_1" data-name="Pfad 1" d="M118.542,488.251,35.931,358.339l185.01-117.645,95.544,150.25L163.458,488.251Z" transform="translate(702.772 79.132)" fill="#f0f0f0"/>
  <path id="Pfad_2" data-name="Pfad 2" d="M317.5,609.192H522.13V568H317.5Zm201.973-2.658H320.158V570.657H519.473Z" transform="translate(386.747 -1.281)" fill="#3f3d56"/>
  <ellipse id="Ellipse_1" data-name="Ellipse 1" cx="13.595" cy="13.028" rx="13.595" ry="13.028" transform="translate(715.8 574.382)" fill="#0046fe"/>
  <ellipse id="Ellipse_2" data-name="Ellipse 2" cx="13.595" cy="13.028" rx="13.595" ry="13.028" transform="translate(753.186 574.382)" fill="#0046fe"/>
  <ellipse id="Ellipse_3" data-name="Ellipse 3" cx="13.028" cy="13.028" rx="13.028" ry="13.028" transform="translate(790.571 574.382)" fill="#0046fe"/>
  <ellipse id="Ellipse_4" data-name="Ellipse 4" cx="13.028" cy="13.028" rx="13.028" ry="13.028" transform="translate(827.957 574.382)" fill="#0046fe"/>
  <ellipse id="Ellipse_5" data-name="Ellipse 5" cx="13.028" cy="13.028" rx="13.028" ry="13.028" transform="translate(865.343 574.382)" fill="#0046fe"/>
  <path id="Pfad_3" data-name="Pfad 3" d="M556.993,291.651V190.664H506.5V141.5H753.651V388.651H542.377V364.486a34.3,34.3,0,0,0-34.3-34.3H506.5V291.651Z" transform="translate(-95.911 -141.5)" fill="#f0f0f0"/>
  <rect id="Rechteck_13" data-name="Rechteck 13" width="164.271" height="33.987" transform="translate(187.867 637.825)" fill="#0046fe"/>
  <rect id="Rechteck_14" data-name="Rechteck 14" width="241.308" height="31.721" transform="translate(151.614 467.889)" fill="#f0f0f0"/>
  <rect id="Rechteck_15" data-name="Rechteck 15" width="1034.341" height="3.399" transform="translate(32.659 816.824)" fill="#3f3d56"/>
  <path id="Pfad_4" data-name="Pfad 4" d="M700.13,914.993h302.124a35.671,35.671,0,0,0,35.63-35.63V318.13a35.671,35.671,0,0,0-35.63-35.63H700.131A35.671,35.671,0,0,0,664.5,318.13V879.362a35.671,35.671,0,0,0,35.63,35.631Zm302.123-629.836a33.01,33.01,0,0,1,32.973,32.972V879.362a33.01,33.01,0,0,1-32.972,32.973H700.131a33.01,33.01,0,0,1-32.973-32.972V318.13a33.01,33.01,0,0,1,32.972-32.972Z" transform="translate(-590.089 -95.144)" fill="#3f3d56"/>
  <path id="Pfad_5" data-name="Pfad 5" d="M779.973,306.445A7.973,7.973,0,1,0,772,298.473,7.973,7.973,0,0,0,779.973,306.445Zm0-13.288a5.315,5.315,0,1,1-5.315,5.315A5.315,5.315,0,0,1,779.973,293.158Z" transform="translate(-482.993 -92.514)" fill="#3f3d56"/>
  <rect id="Rechteck_16" data-name="Rechteck 16" width="58.466" height="2.658" transform="translate(218.582 204.63)" fill="#3f3d56"/>
  <path id="Pfad_6" data-name="Pfad 6" d="M847.5,311.5V417.8A106.305,106.305,0,0,0,953.8,311.5Z" transform="translate(-749.171 -85.61)" fill="#0046fe"/>
  <path id="Pfad_7" data-name="Pfad 7" d="M681.5,869.911h328.206V310.5H681.5Zm325.548-2.658H684.157v-554.1h322.891Z" transform="translate(-584.5 -85.938)" fill="#3f3d56"/>
  <ellipse id="Ellipse_6" data-name="Ellipse 6" cx="36.253" cy="35.686" rx="36.253" ry="35.686" transform="translate(139.152 253.77)" fill="#002a98"/>
  <path id="Pfad_363" data-name="Pfad 363" d="M35.686,0A35.686,35.686,0,1,0,71.373,35.686,35.686,35.686,0,0,0,35.686,0Z" transform="translate(144.816 258.302)" fill="#0046fe"/>
  <rect id="Rechteck_17" data-name="Rechteck 17" width="50.981" height="19.259" transform="translate(360.068 246.973)" fill="#3f3d56"/>
  <rect id="Rechteck_18" data-name="Rechteck 18" width="50.981" height="19.259" transform="translate(138.75 423.706)" fill="#3f3d56"/>
  <path id="Pfad_8" data-name="Pfad 8" d="M713.5,521.048H957.993V486.5H713.5Zm241.836-2.658H716.158V489.158H955.336Z" transform="translate(-575.308 -28.075)" fill="#3f3d56"/>
  <rect id="Rechteck_19" data-name="Rechteck 19" width="241.308" height="31.721" transform="translate(151.614 568.718)" fill="#f0f0f0"/>
  <rect id="Rechteck_20" data-name="Rechteck 20" width="50.981" height="19.259" transform="translate(138.75 524.534)" fill="#3f3d56"/>
  <path id="Pfad_9" data-name="Pfad 9" d="M713.5,597.048H957.993V562.5H713.5Zm241.836-2.658H716.158V565.158H955.336Z" transform="translate(-575.308 -3.089)" fill="#3f3d56"/>
  <path id="Pfad_10" data-name="Pfad 10" d="M742.5,650.705H909.925V613.5H742.5Zm164.767-2.658H745.158v-31.89H907.267Z" transform="translate(-565.774 13.678)" fill="#3f3d56"/>
  <path id="Pfad_11" data-name="Pfad 11" d="M872.5,505.788a13.289,13.289,0,0,0,23.532,8.464l.013-.013a13.287,13.287,0,1,0-23.16-11.6.013.013,0,0,1,0,.009.013.013,0,0,1-.01,0A13.584,13.584,0,0,0,872.5,505.788Z" transform="translate(-518.661 -27.236)" fill="#0046fe"/>
  <path id="Pfad_12" data-name="Pfad 12" d="M874.5,504.473a13.289,13.289,0,0,0,23.533,8.464l.013-.013a13.586,13.586,0,0,0,.372-3.136,13.289,13.289,0,0,0-23.533-8.464.013.013,0,0,1-.013.013A13.6,13.6,0,0,0,874.5,504.473Z" transform="translate(-520.664 -25.921)" fill="#002a98"/>
  <ellipse id="Ellipse_8" data-name="Ellipse 8" cx="13.595" cy="13.028" rx="13.595" ry="13.028" transform="translate(348.152 473.554)" fill="#0046fe"/>
  <path id="Pfad_13" data-name="Pfad 13" d="M872.5,581.788a13.289,13.289,0,0,0,23.532,8.464l.013-.013a13.287,13.287,0,1,0-23.16-11.6.013.013,0,0,1-.013.013,13.585,13.585,0,0,0-.372,3.136Z" transform="translate(-518.661 -2.249)" fill="#0046fe"/>
  <path id="Pfad_14" data-name="Pfad 14" d="M874.5,580.473a13.289,13.289,0,0,0,23.533,8.464l.013-.013a13.588,13.588,0,0,0,.372-3.136,13.289,13.289,0,0,0-23.533-8.464.013.013,0,0,1,0,.009.013.013,0,0,1-.01,0,13.6,13.6,0,0,0-.372,3.136Z" transform="translate(-520.664 -0.934)" fill="#002a98"/>
  <ellipse id="Ellipse_9" data-name="Ellipse 9" cx="13.595" cy="13.028" rx="13.595" ry="13.028" transform="translate(348.152 574.382)" fill="#0046fe"/>
  <rect id="Rechteck_21" data-name="Rechteck 21" width="69.107" height="69.107" transform="translate(375.929 63.443)" fill="#f0f0f0"/>
  <path id="Pfad_15" data-name="Pfad 15" d="M873.445,235.39A15.945,15.945,0,1,0,857.5,219.445,15.945,15.945,0,0,0,873.445,235.39Zm0-29.233a13.288,13.288,0,1,1-13.288,13.288,13.288,13.288,0,0,1,13.288-13.288Z" transform="translate(-698.048 -121.116)" fill="#3f3d56"/>
  <path id="Pfad_16" data-name="Pfad 16" d="M579.5,403.048h34.548V368.5H579.5Zm31.89-2.658H582.157V371.158H611.39Z" transform="translate(-53.308 -66.87)" fill="#3f3d56"/>
  <path id="Pfad_17" data-name="Pfad 17" d="M975.5,597.048h34.548V562.5H975.5Zm31.891-2.658H978.157V565.158h29.233Z" transform="translate(-975.5 -3.089)" fill="#3f3d56"/>
  <path id="Pfad_18" data-name="Pfad 18" d="M569.591,425.782l-5.929,3.193-20.174,10.873L510.92,457.4l-18.98-35.214A28.6,28.6,0,0,1,503.559,383.4a37.99,37.99,0,0,1,44.356,6.018l.01.01a38.026,38.026,0,0,1,7.142,9.4Z" transform="translate(112.063 -63.473)" fill="#2f2e41"/>
  <path id="Pfad_19" data-name="Pfad 19" d="M335.19,543.922l3.978,43.768,14.922,1.989,9.947-49.737Z" transform="translate(257.573 177.515)" fill="#ffb8b8"/>
  <path id="Pfad_20" data-name="Pfad 20" d="M577.418,720.129s-18.9-9.948-22.879-1.99c0,0,2.984,23.874-8.953,26.858s-16.911,23.874,0,25.863,27.853-3.979,33.822-3.979,0-20.89,0-20.89Z" transform="translate(38.224 47.066)" fill="#2f2e41"/>
  <path id="Pfad_21" data-name="Pfad 21" d="M295.164,543.922l-3.98,43.768-14.921,1.989-9.947-49.737Z" transform="translate(417.964 177.515)" fill="#ffb8b8"/>
  <path id="Pfad_22" data-name="Pfad 22" d="M454.52,720.129s18.9-9.948,22.879-1.99c0,0-2.984,23.874,8.953,26.858s16.911,23.874,0,25.863-27.854-3.978-33.823-3.978,0-20.89,0-20.89Z" transform="translate(235.729 47.066)" fill="#2f2e41"/>
  <ellipse id="Ellipse_10" data-name="Ellipse 10" cx="25.864" cy="25.864" rx="25.864" ry="25.864" transform="translate(605.694 318.561)" fill="#ffb8b8"/>
  <path id="Pfad_23" data-name="Pfad 23" d="M561.6,451.438l-20.891,32.827-24.869-1.99L475.06,485.26s-3.85-7.7-6.993-15.19a58.848,58.848,0,0,1-3.949-11.668c-.995-6.963,12.932-13.927,12.932-13.927s.547-.1,1.462-.318c1.214-.288,3.084-.766,5.133-1.462,4.626-1.572,10.186-4.238,11.31-8.167,1.989-6.963-12.932-16.911-12.932-16.911l17.906-16.911s15.906,22.093,35.224,27.127a30.755,30.755,0,0,0,3.4.7l.169.03C559.614,431.544,561.6,451.438,561.6,451.438Z" transform="translate(152.519 -56.282)" fill="#ffb8b8"/>
  <path id="Pfad_24" data-name="Pfad 24" d="M455.268,432.149l10.942,8.953s8.953,42.775,5.969,54.711.995,22.879.995,24.869,8.953,76.6,8.953,76.6,17.906,39.79-.995,35.811S469.2,589.32,469.2,589.32l-22.879-69.633V461Z" transform="translate(247.912 -45.944)" fill="#ffb8b8"/>
  <path id="Pfad_25" data-name="Pfad 25" d="M582.824,438.138l-7.958,5.968-3.979,83.559-29.843,71.622S519.16,634.1,533.086,635.1s22.879-35.812,22.879-35.812l26.858-68.638L586.8,464Z" transform="translate(41.771 -43.975)" fill="#ffb8b8"/>
  <path id="Pfad_26" data-name="Pfad 26" d="M572.22,442.629s-19.895,13.927-51.727,8.953c0,0-8.953,17.906-3.979,27.853s-5.969,33.822-7.958,36.806S483.687,580.9,475.729,647.548s-29.843,112.407-10.942,118.376,57.7,12.932,61.675,6.963S536.409,618.7,536.409,618.7l10.942,56.7s-14.921,96.491-3.979,98.481,79.58-3.979,77.591-15.916-21.885-74.607-21.885-74.607.995-125.339-18.9-149.213c0,0-7.958-12.932,2.984-29.843s9.948-43.769,9.948-43.769S585.153,460.535,572.22,442.629Z" transform="translate(102.112 -42.499)" fill="#2f2e41"/>
  <path id="Pfad_27" data-name="Pfad 27" d="M303.634,280.317l-16.742,36.836-3.978-1.989,17.319-35.543Z" transform="translate(387.441 91.93)" fill="#2f2e41"/>
  <path id="Pfad_28" data-name="Pfad 28" d="M538.315,432.306,525.751,459.95l-3.014-.269,1.025-4.705,9.42-21.208C534.4,433.479,536.264,433,538.315,432.306Z" transform="translate(97.85 -45.893)" fill="#2f2e41"/>
  <path id="Pfad_29" data-name="Pfad 29" d="M543.055,428.975a16.374,16.374,0,0,1-30.042,2.925c12.584-16.453,1.791-26.789-18.652-34.607a16.36,16.36,0,0,1,1.761-18.144,38.119,38.119,0,0,1,31.186,10.266l.01.01,14.522,26.937a16.3,16.3,0,0,1,1.215,12.614Z" transform="translate(132.671 -63.471)" fill="#2f2e41"/>
  <ellipse id="Ellipse_11" data-name="Ellipse 11" cx="3.482" cy="5.969" rx="3.482" ry="5.969" transform="translate(643.495 341.44)" fill="#ffb8b8"/>
  <path id="Pfad_30" data-name="Pfad 30" d="M557.792,400.555l-29.9,13.549-5.481-12.1a28.653,28.653,0,0,1,5.77-12.066l20.581-9.321Z" transform="translate(78.81 -62.885)" fill="#2f2e41"/>
  <ellipse id="Ellipse_12" data-name="Ellipse 12" cx="13.028" cy="13.595" rx="13.028" ry="13.595" transform="translate(551.529 577.781)" fill="#0046fe"/>
  <circle id="Ellipse_13" data-name="Ellipse 13" cx="8.684" cy="8.684" r="8.684" transform="translate(982.634 666.211)" fill="#ff6584"/>
  <rect id="Rechteck_22" data-name="Rechteck 22" width="2.658" height="98.875" transform="translate(947.444 720.156)" fill="#3f3d56"/>
  <ellipse id="Ellipse_14" data-name="Ellipse 14" cx="13.982" cy="13.982" rx="13.982" ry="13.982" transform="translate(934.79 706.172)" fill="#3f3d56"/>
  <path id="Pfad_31" data-name="Pfad 31" d="M255.155,738.828s2-42.962,42.946-37.968" transform="translate(693.618 42.266)" fill="#3f3d56"/>
</svg>
