<svg xmlns="http://www.w3.org/2000/svg" width="854" height="537.526" viewBox="0 0 854 537.526">
  <g id="Gruppe_326" data-name="Gruppe 326" transform="translate(0 0)">
    <path id="Pfad_329" data-name="Pfad 329" d="M906.149,615.785H265.311a16.519,16.519,0,0,1-16.5-16.5V204.131A12.1,12.1,0,0,1,260.9,192.043H910.352a12.311,12.311,0,0,1,12.3,12.3V599.285a16.519,16.519,0,0,1-16.5,16.5Z" transform="translate(-173 -181.237)" fill="#f2f2f2"/>
    <path id="Pfad_330" data-name="Pfad 330" d="M882.772,595.418H285.527c-8.755,0-15.878-6.67-15.878-14.868v-344.1c0-6.08,5.278-11.027,11.766-11.027H886.689c6.6,0,11.961,5.028,11.961,11.208V580.55C898.65,588.748,891.527,595.418,882.772,595.418Z" transform="translate(-173 -181.237)" fill="#fff"/>
    <path id="Pfad_331" data-name="Pfad 331" d="M922.419,206.187H248.579v-8.4a16.574,16.574,0,0,1,16.56-16.55h640.72a16.574,16.574,0,0,1,16.56,16.55Z" transform="translate(-173 -181.237)" fill="#fff"/>
    <circle id="Ellipse_323" data-name="Ellipse 323" cx="4.283" cy="4.283" r="4.283" transform="translate(101.391 8.217)" fill="#fff"/>
    <circle id="Ellipse_324" data-name="Ellipse 324" cx="4.283" cy="4.283" r="4.283" transform="translate(117.65 8.217)" fill="#fff"/>
    <circle id="Ellipse_325" data-name="Ellipse 325" cx="4.283" cy="4.283" r="4.283" transform="translate(133.909 8.217)" fill="#fff"/>
    <path id="Pfad_332" data-name="Pfad 332" d="M566.482,551.02H358.644a17.52,17.52,0,0,1-17.5-17.5V282.366a13.1,13.1,0,0,1,13.088-13.088H570.685a13.312,13.312,0,0,1,13.3,13.3V533.52A17.52,17.52,0,0,1,566.482,551.02ZM354.232,271.277a11.1,11.1,0,0,0-11.088,11.088V533.519a15.517,15.517,0,0,0,15.5,15.5H566.483a15.518,15.518,0,0,0,15.5-15.5V282.575a11.31,11.31,0,0,0-11.3-11.3Z" transform="translate(-173 -181.237)" fill="#ccc"/>
    <path id="Pfad_333" data-name="Pfad 333" d="M374.644,533.52H550.483a16,16,0,0,0,16-16V302.972a16,16,0,0,0-16-16H374.644a16,16,0,0,0-16,16V517.52A16,16,0,0,0,374.644,533.52Z" transform="translate(-173 -181.237)" fill="#e6e6e6"/>
    <path id="Pfad_334" data-name="Pfad 334" d="M511.063,330.746h-97a6.5,6.5,0,1,1,0-13h97a6.5,6.5,0,0,1,0,13Z" transform="translate(-173 -181.237)" fill="#fff"/>
    <path id="Pfad_335" data-name="Pfad 335" d="M511.063,471.746h-97a6.5,6.5,0,0,1,0-13h97a6.5,6.5,0,0,1,0,13Z" transform="translate(-173 -181.237)" fill="#fff"/>
    <path id="Pfad_336" data-name="Pfad 336" d="M511.063,502.746h-97a6.5,6.5,0,1,1,0-13h97a6.5,6.5,0,0,1,0,13Z" transform="translate(-173 -181.237)" fill="#fff"/>
    <circle id="Ellipse_326" data-name="Ellipse 326" cx="39" cy="39" r="39" transform="translate(251.063 167.009)" fill="#fff"/>
    <path id="Pfad_337" data-name="Pfad 337" d="M713.947,351.509,696.91,355.1a1,1,0,0,0-.686,1.431l1.587,3.127-77.044,39.107a1,1,0,1,0,.905,1.783l77.044-39.107,1.587,3.128a1,1,0,0,0,1.56.292l12.957-11.632a1,1,0,0,0-.874-1.722Z" transform="translate(-173 -181.237)" fill="#e6e6e6"/>
    <path id="Pfad_338" data-name="Pfad 338" d="M713.947,448.715l-17.037-3.593a1,1,0,0,1-.686-1.431l1.587-3.127-77.044-39.107a1,1,0,1,1,.905-1.783l77.044,39.107,1.587-3.128a1,1,0,0,1,1.56-.292l12.957,11.632a1,1,0,0,1-.874,1.723Z" transform="translate(-173 -181.237)" fill="#e6e6e6"/>
    <path id="Pfad_339" data-name="Pfad 339" d="M770.1,373.763a22,22,0,1,1,22-22,22,22,0,0,1-22,22Zm0-42a20,20,0,1,0,20,20,20,20,0,0,0-20-20Z" transform="translate(-173 -181.237)" fill="#e6e6e6"/>
    <path id="Pfad_340" data-name="Pfad 340" d="M770.1,470.763a22,22,0,1,1,22-22,22,22,0,0,1-22,22Zm0-42a20,20,0,1,0,20,20,20,20,0,0,0-20-20Z" transform="translate(-173 -181.237)" fill="#e6e6e6"/>
    <path id="Path_395" data-name="Path 395" d="M768.359,362.6a2.931,2.931,0,0,1-1.763-.586l-.032-.024-6.64-5.079a2.951,2.951,0,1,1,3.591-4.684l4.3,3.3,10.163-13.259a2.95,2.95,0,0,1,4.135-.546h0l-.063.088.065-.088a2.953,2.953,0,0,1,.546,4.136L770.709,361.45a2.952,2.952,0,0,1-2.347,1.151Z" transform="translate(-173 -181.237)" fill="#e6e6e6"/>
    <path id="Pfad_341" data-name="Pfad 341" d="M760.556,458.309a1.5,1.5,0,0,1,0-2.121l16.971-16.971a1.5,1.5,0,0,1,2.121,2.121l-16.971,16.971a1.5,1.5,0,0,1-2.122,0Z" transform="translate(-173 -181.237)" fill="#e6e6e6"/>
    <path id="Pfad_342" data-name="Pfad 342" d="M778.648,458.309a1.5,1.5,0,0,0,0-2.121l-16.971-16.971a1.5,1.5,0,1,0-2.121,2.121l16.971,16.971a1.5,1.5,0,0,0,2.121,0Z" transform="translate(-173 -181.237)" fill="#e6e6e6"/>
    <path id="Pfad_343" data-name="Pfad 343" d="M808.09,400.916a1.372,1.372,0,0,1-.194-.014,1.321,1.321,0,0,1-.874-.521l-8.175-10.962a.33.33,0,0,0-.567.067l-4.192,9.807a1.329,1.329,0,0,1-2.51-.19l-8.364-32.375a1.329,1.329,0,0,1,1.973-1.471l28.64,17.255a1.329,1.329,0,0,1-.534,2.459L802.7,386.189a.33.33,0,0,0-.227.524l8.175,10.961a1.332,1.332,0,0,1-.271,1.861l-1.5,1.116a1.32,1.32,0,0,1-.792.264Z" transform="translate(-173 -181.237)" fill="#6c63ff"/>
    <path id="Pfad_344" data-name="Pfad 344" d="M854.6,424.763h-36a10,10,0,0,1,0-20h36a10,10,0,0,1,0,20Z" transform="translate(-173 -181.237)" fill="#6c63ff"/>
    <path id="Pfad_345" data-name="Pfad 345" d="M418.323,355.652l-1.5-1.116a1.332,1.332,0,0,1-.271-1.861l8.175-10.961a.33.33,0,0,0-.227-.524l-10.591-1.218a1.329,1.329,0,0,1-.534-2.459l28.64-17.255a1.33,1.33,0,0,1,1.973,1.471L435.627,354.1a1.329,1.329,0,0,1-2.51.19l-4.192-9.807a.33.33,0,0,0-.567-.067l-8.175,10.962a1.321,1.321,0,0,1-.874.521,1.376,1.376,0,0,1-.194.014,1.32,1.32,0,0,1-.792-.264Z" transform="translate(-173 -181.237)" fill="#3f3d56"/>
    <path id="Pfad_346" data-name="Pfad 346" d="M362.6,369.763a10.011,10.011,0,0,1,10-10h36a10,10,0,0,1,0,20h-36a10.011,10.011,0,0,1-10-10Z" transform="translate(-173 -181.237)" fill="#3f3d56"/>
    <path id="Pfad_347" data-name="Pfad 347" d="M896.351,551.033a10.056,10.056,0,0,0-.693-15.4l11.18-33.941-17.922,4.86-7.869,31.486a10.11,10.11,0,0,0,15.3,13Z" transform="translate(-173 -181.237)" fill="#a0616a"/>
    <path id="Pfad_348" data-name="Pfad 348" d="M1003.85,549.033a10.056,10.056,0,0,1,.693-15.4l-11.18-33.941,17.922,4.86,7.869,31.486a10.11,10.11,0,0,1-15.3,13Z" transform="translate(-173 -181.237)" fill="#a0616a"/>
    <circle id="Ellipse_327" data-name="Ellipse 327" cx="24.561" cy="24.561" r="24.561" transform="translate(753.762 149.127)" fill="#a0616a"/>
    <path id="Pfad_349" data-name="Pfad 349" d="M755.138,525.359H742.879l-5.833-47.288h18.095Z" fill="#a0616a"/>
    <path id="Pfad_350" data-name="Pfad 350" d="M931.265,718.48H891.734v-.5a15.386,15.386,0,0,1,15.387-15.386h24.145Z" transform="translate(-173 -181.237)" fill="#2f2e41"/>
    <path id="Pfad_351" data-name="Pfad 351" d="M797.138,525.359H784.879l-5.833-47.288h18.095Z" fill="#a0616a"/>
    <path id="Pfad_352" data-name="Pfad 352" d="M973.265,718.48H933.734v-.5a15.386,15.386,0,0,1,15.387-15.386h24.145Z" transform="translate(-173 -181.237)" fill="#2f2e41"/>
    <path id="Pfad_353" data-name="Pfad 353" d="M927.938,692.775l-14.4-.04a4.438,4.438,0,0,1-3.459-1.04,4.5,4.5,0,0,1-1.578-3.32L910.159,529l66.456-.664L972.76,687.2a4.474,4.474,0,0,1-4.5,4.392H953.412a4.486,4.486,0,0,1-4.5-4.331l-3.594-95.35a.476.476,0,0,0-.492-.481.492.492,0,0,0-.506.467L931.817,688.65a4.5,4.5,0,0,1-3.879,4.125Z" transform="translate(-173 -181.237)" fill="#2f2e41"/>
    <path id="Pfad_354" data-name="Pfad 354" d="M940.337,539.856c-9.819,0-20.2-1.754-29.563-6.883a4.539,4.539,0,0,1-2.362-3.887l-1.31-72.738-1.844-15.565a47.412,47.412,0,0,1,23.6-46.81l.852-.485,2.4-5.6a2.479,2.479,0,0,1,2.369-1.514l32.243.921a2.51,2.51,0,0,1,2.3,1.709l1.5,4.493a47.194,47.194,0,0,1,23.139,48.179l-13.217,87.469a4.5,4.5,0,0,1-2.84,3.53C971.751,534.9,956.835,539.856,940.337,539.856Z" transform="translate(-173 -181.237)" fill="#3f3d56"/>
    <path id="Pfad_355" data-name="Pfad 355" d="M1003.34,529.992a2.511,2.511,0,0,1-2.336-1.6l-16.372-42.374L971.247,420a13.01,13.01,0,0,1,5.325-13.273h0a13.019,13.019,0,0,1,20.277,8.547l3.747,22.48,18.581,86.058a2.51,2.51,0,0,1-1.871,2.96l-13.393,3.151a2.46,2.46,0,0,1-.573.066Z" transform="translate(-173 -181.237)" fill="#3f3d56"/>
    <path id="Pfad_356" data-name="Pfad 356" d="M897.86,529.992a2.47,2.47,0,0,1-.569-.067l-13.392-3.15a2.51,2.51,0,0,1-1.871-2.96l18.586-86.081,3.742-22.457a13.019,13.019,0,0,1,20.277-8.547h0A13.01,13.01,0,0,1,929.958,420l-13.365,65.935L900.2,528.4A2.511,2.511,0,0,1,897.86,529.992Z" transform="translate(-173 -181.237)" fill="#3f3d56"/>
    <path id="Pfad_357" data-name="Pfad 357" d="M970.44,378.356c-2.274,1.308-11.263,2.176-11.9-.368l-.014-.056c-.446-1.864-.076-3.811.052-5.723s-.059-4.013-1.362-5.419c-2.428-2.621-6.748-1.232-10.258-1.894a8.664,8.664,0,0,1-6.74-9.253c.05-.4.128-.8.216-1.193a6.673,6.673,0,0,0-6.927-8.081c-3.548.2-7.378,1.278-10.314-1.35-2.27-2.032-2.824-7.322-1.827-10.2,1.676-4.838,12.414-7.371,17.1-8.764a40.62,40.62,0,0,1,34.43,5.65c2.961,2.087,5.727,4.71,6.989,8.106s.653,7.68-2.193,9.922a18.332,18.332,0,0,1,4.246,17.806C980.534,372.066,973.825,376.408,970.44,378.356Z" transform="translate(-173 -181.237)" fill="#2f2e41"/>
    <path id="Pfad_358" data-name="Pfad 358" d="M286.569,514.346a10.056,10.056,0,0,1-8.667-12.753L248.628,481.1l17.265-6.837,25.152,20.509a10.11,10.11,0,0,1-4.477,19.574Z" transform="translate(-173 -181.237)" fill="#ffb8b8"/>
    <path id="Pfad_359" data-name="Pfad 359" d="M270.671,498.768,244.16,483.392a22.056,22.056,0,0,1-10.637-14.237,21.139,21.139,0,0,1,3.2-16.486L258.666,420.3a10.969,10.969,0,0,1,18.979,10.881l-17.137,35.905,17.36,15.286a4.506,4.506,0,0,1,1.425,4.325l-1.965,9.127a4.5,4.5,0,0,1-6.657,2.946Z" transform="translate(-173 -181.237)" fill="#3f3d56"/>
    <path id="Pfad_360" data-name="Pfad 360" d="M390.8,426.837a10.056,10.056,0,0,1-14.263,5.859l-26.076,24.434-3.14-18.3,25.244-20.4a10.11,10.11,0,0,1,18.235,8.407Z" transform="translate(-173 -181.237)" fill="#ffb8b8"/>
    <circle id="Ellipse_328" data-name="Ellipse 328" cx="24.561" cy="24.561" r="24.561" transform="translate(86.431 164.403)" fill="#ffb8b8"/>
    <path id="Pfad_361" data-name="Pfad 361" d="M183.308,524.961l11.751-3.5-7.894-46.988-17.343,5.16Z" fill="#ffb8b8"/>
    <path id="Pfad_362" data-name="Pfad 362" d="M352.169,703.253l23.141-6.885h0a15.386,15.386,0,0,1,19.135,10.36l.143.479L356.7,718.48Z" transform="translate(-173 -181.237)" fill="#2f2e41"/>
    <path id="Pfad_363" data-name="Pfad 363" d="M54.57,524.359H66.829l5.833-47.288H60.568Z" fill="#ffb8b8"/>
    <path id="Pfad_364" data-name="Pfad 364" d="M224.442,701.594h24.145a15.386,15.386,0,0,1,15.387,15.387v.5H224.443Z" transform="translate(-173 -181.237)" fill="#2f2e41"/>
    <path id="Pfad_365" data-name="Pfad 365" d="M347.537,689.273,301.551,556.946a1.471,1.471,0,0,0-1.382-1.007,1.433,1.433,0,0,0-1.427.942L245.753,689.35a4.479,4.479,0,0,1-4.4,2.823l-13.831-.671a4.5,4.5,0,0,1-4.143-5.6l50.123-197.544,50.287-4.1.328.474c.272.393,27.178,40,27.161,108.39l17.241,93.866A4.5,4.5,0,0,1,364.1,692.3H351.788A4.5,4.5,0,0,1,347.537,689.273Z" transform="translate(-173 -181.237)" fill="#2f2e41"/>
    <path id="Pfad_366" data-name="Pfad 366" d="M255.581,443.55a31.289,31.289,0,0,1,5.354-30.169,30.9,30.9,0,0,1,28.086-11.24q.625.084,1.242.169h0a31.273,31.273,0,0,1,26.722,26.215l9.391,59.729-53.54,4.041-.384.028Z" transform="translate(-173 -181.237)" fill="#3f3d56"/>
    <path id="Pfad_367" data-name="Pfad 367" d="M333.71,467.786a21.137,21.137,0,0,1-15.342-7.389l-25.327-29.359a11.322,11.322,0,0,1-2.865-8.03,10.859,10.859,0,0,1,4.1-7.954,10.983,10.983,0,0,1,13.991.236l30.2,25.886,18.582-12.927a4.5,4.5,0,0,1,4.6-.32l8.894,4.5a4.5,4.5,0,0,1,1.138,7.208L349.574,461.6a21.174,21.174,0,0,1-15.011,6.2Q334.138,467.8,333.71,467.786Z" transform="translate(-173 -181.237)" fill="#3f3d56"/>
    <path id="Pfad_368" data-name="Pfad 368" d="M302.668,364.067a32,32,0,0,0,9.554,2.1c3.293.041,6.793-1.1,8.595-3.607a8.986,8.986,0,0,0,.989-7.439,17.671,17.671,0,0,0-9.752-11.457,20.761,20.761,0,0,0-15.917-.512c-1.848-5.618-8.808-8.675-15.25-8.848-13.16-.353-24.926,8.62-30.644,19.41s-6.553,23.123-6.908,35.1c-.087,2.92-.123,5.965,1.26,8.6,2.06,3.926,6.741,6.04,11.152,7.716a209.37,209.37,0,0,0,35.667,10.026c-5.84-3.732-7.692-11.766-3.993-17.319,1.81-2.717,4.781-4.979,5.262-8.125.577-3.773-2.643-7.072-3.833-10.724a10.9,10.9,0,0,1,3.109-11.25,13.666,13.666,0,0,1,12.338-2.926" transform="translate(-173 -181.237)" fill="#2f2e41"/>
    <path id="Pfad_369" data-name="Pfad 369" d="M422,718.763H174a1,1,0,0,1,0-2H422a1,1,0,0,1,0,2Z" transform="translate(-173 -181.237)" fill="#ccc"/>
    <path id="Pfad_370" data-name="Pfad 370" d="M1026,718.763H850a1,1,0,0,1,0-2h176a1,1,0,0,1,0,2Z" transform="translate(-173 -181.237)" fill="#ccc"/>
  </g>
</svg>
